<svg width="48" height="48" fill="none" xmlns="http://www.w3.org/2000/svg"><path fill="#fff" fill-opacity=".1" d="M0 0h48v48H0z"/><path stroke="#000" stroke-opacity=".16" d="M.5.5h47v47H.5z"/><g clip-path="url(#a)"><path fill-rule="evenodd" clip-rule="evenodd" d="M27.5 17h-7a3.51 3.51 0 0 0-3.5 3.5v7a3.51 3.51 0 0 0 3.5 3.5h7a3.51 3.51 0 0 0 3.5-3.5v-7a3.51 3.51 0 0 0-3.5-3.5ZM24 26.917a2.917 2.917 0 1 1 0-5.834 2.917 2.917 0 0 1 0 5.834Zm2.917-6.709a.875.875 0 1 0 1.75.001.875.875 0 0 0-1.75 0Z" fill="#fff"/></g><defs><clipPath id="a"><path fill="#fff" transform="translate(17 17)" d="M0 0h14v14H0z"/></clipPath></defs></svg>