<svg width="48" height="48" fill="none" xmlns="http://www.w3.org/2000/svg"><path fill="#fff" fill-opacity=".1" d="M0 0h48v48H0z"/><path stroke="#000" stroke-opacity=".16" d="M.5.5h47v47H.5z"/><g clip-path="url(#a)"><path d="M31.278 19.555a.32.32 0 0 0-.384-.064 3.055 3.055 0 0 1-.48.173 3.12 3.12 0 0 0 .544-1.024.32.32 0 0 0-.493-.34 6.775 6.775 0 0 1-1.62.64 3.232 3.232 0 0 0-2.284-.94 3.654 3.654 0 0 0-1.92.595c-1.216.685-1.427 2.266-1.338 3.245a8.32 8.32 0 0 1-5.76-3.046.34.34 0 0 0-.262-.154.32.32 0 0 0-.256.16 3.424 3.424 0 0 0 .14 3.648 4.048 4.048 0 0 1-.3-.224.32.32 0 0 0-.544.256 3.667 3.667 0 0 0 1.6 2.97l-.25-.07a.32.32 0 0 0-.39.428 4.147 4.147 0 0 0 2.681 2.317 5.9 5.9 0 0 1-3.603.755.32.32 0 0 0-.198.595 9.728 9.728 0 0 0 4.96 1.325 8.544 8.544 0 0 0 6.4-2.963 8.723 8.723 0 0 0 2.336-6.349 6.28 6.28 0 0 0 1.453-1.568.32.32 0 0 0-.032-.365Z" fill="#fff"/></g><defs><clipPath id="a"><path fill="#fff" transform="translate(16 18)" d="M0 0h16v13H0z"/></clipPath></defs></svg>