<svg width="100" height="20" fill="none" xmlns="http://www.w3.org/2000/svg"><g clip-path="url(#a)" fill="#fff"><path d="M0 19.657V0h16.474c2.126 0 3.92.353 5.38 1.059a7.188 7.188 0 0 1 3.36 3.233c.778 1.43 1.167 3.271 1.167 5.522 0 2.232-.389 4.082-1.167 5.55a7.188 7.188 0 0 1-3.36 3.234c-1.46.706-3.254 1.059-5.38 1.059H0Zm5.096-4.006h11.321c.797 0 1.49-.114 2.078-.343a3.853 3.853 0 0 0 1.48-1.002c.4-.439.694-.982.883-1.63.19-.65.285-1.393.285-2.232V9.242c0-.859-.095-1.612-.285-2.26-.19-.65-.484-1.193-.882-1.631a3.853 3.853 0 0 0-1.48-1.002c-.589-.229-1.282-.343-2.079-.343H5.096V15.65Zm24.414 4.006V0h19.662c1.443 0 2.648.277 3.616.83.968.534 1.689 1.278 2.164 2.232.493.934.74 1.983.74 3.147 0 1.259-.294 2.384-.883 3.376-.57.973-1.376 1.736-2.42 2.29l3.929 7.782h-5.694l-3.245-6.925H34.606v6.925H29.51Zm5.096-10.73h13.57c.702 0 1.262-.229 1.68-.687.436-.477.654-1.106.654-1.888 0-.515-.095-.954-.284-1.316a1.975 1.975 0 0 0-.797-.83c-.342-.21-.76-.315-1.253-.315h-13.57v5.036ZM67.682 20c-1.88 0-3.502-.296-4.868-.887-1.348-.591-2.382-1.478-3.103-2.66-.722-1.184-1.082-2.652-1.082-4.407V0h5.124v11.931c0 1.26.332 2.251.996 2.976.665.725 1.642 1.087 2.933 1.087 1.29 0 2.277-.362 2.96-1.087.684-.725 1.026-1.717 1.026-2.976V0h5.095v12.046c0 1.755-.36 3.223-1.081 4.406-.722 1.183-1.756 2.07-3.103 2.661-1.348.591-2.98.887-4.897.887Zm13.016-.343V0h5.096v8.727L93.537 0h6.32L92.57 8.04 100 19.657h-6.035l-4.926-8.126-3.245 3.004v5.122h-5.096Z"/></g><defs><clipPath id="a"><path fill="#fff" d="M0 0h100v20H0z"/></clipPath></defs></svg>